<?xml version="1.0" encoding="UTF-8" standalone="no"?>
<!-- Created with Inkscape (http://www.inkscape.org/) -->

<svg
   width="512.02515"
   height="511.99814"
   viewBox="0 0 135.47332 135.46617"
   version="1.1"
   id="svg1"
   inkscape:export-filename="moon.svg"
   inkscape:export-xdpi="96"
   inkscape:export-ydpi="96"
   xml:space="preserve"
   xmlns:inkscape="http://www.inkscape.org/namespaces/inkscape"
   xmlns:sodipodi="http://sodipodi.sourceforge.net/DTD/sodipodi-0.dtd"
   xmlns="http://www.w3.org/2000/svg"
   xmlns:svg="http://www.w3.org/2000/svg"><sodipodi:namedview
     id="namedview1"
     pagecolor="#ffffff"
     bordercolor="#000000"
     borderopacity="0.25"
     inkscape:showpageshadow="2"
     inkscape:pageopacity="0.0"
     inkscape:pagecheckerboard="0"
     inkscape:deskcolor="#2a2a2a"
     inkscape:document-units="px"
     showguides="false"><sodipodi:guide
       position="163.31252,-121.30525"
       orientation="-1,0"
       id="guide4"
       inkscape:locked="false"
       inkscape:label=""
       inkscape:color="rgb(0,134,229)" /><sodipodi:guide
       position="181.99024,-130.60547"
       orientation="0,1"
       id="guide5"
       inkscape:locked="false"
       inkscape:label=""
       inkscape:color="rgb(0,134,229)" /><inkscape:page
       x="0"
       y="0"
       width="135.47331"
       height="135.46617"
       id="page2"
       margin="0"
       bleed="0" /></sodipodi:namedview><defs
     id="defs1" /><path
     d="M 67.736652,1.3243239e-5 C 30.330292,1.3243239e-5 -8.5773355e-6,31.086303 -8.5773355e-6,69.460333 -8.5773355e-6,100.1535 19.413802,126.15954 46.327032,135.35237 c 3.38683,0.63504 4.62665,-1.51197 4.62665,-3.35659 0,-1.66318 -0.0605,-6.01767 -0.0907,-11.82367 -18.83925,4.2033 -22.83088,-9.3138 -22.83088,-9.3138 -3.08443,-8.01348 -7.52965,-10.16049 -7.52965,-10.16049 -6.13864,-4.324267 0.45359,-4.233547 0.45359,-4.233547 6.80391,0.48384 10.37218,7.166777 10.37218,7.166777 6.04791,10.6141 15.84554,7.5599 19.7162,5.77576 0.60479,-4.47546 2.35868,-7.55989 4.29403,-9.28355 -15.02913,-1.753887 -30.84443,-7.711087 -30.84443,-34.321917 0,-7.59014 2.63085,-13.78925 6.95511,-18.62759 -0.69552,-1.75389 -3.02396,-8.82995 0.66527,-18.38566 0,0 5.68504,-1.87486 18.62757,7.1063 5.41289,-1.54222 11.18865,-2.29821 16.96442,-2.32845 5.74552,0.0302 11.551519,0.78623 16.964399,2.32845 12.94254,-8.98116 18.597349,-7.1063 18.597349,-7.1063 3.68923,9.55571 1.36078,16.63177 0.66527,18.38566 4.32426,4.86858 6.9551,11.06769 6.9551,18.62759 0,26.67131 -15.845539,32.53779 -30.935099,34.261437 2.41918,2.14701 4.59643,6.38056 4.59643,12.85183 0,9.28355 -0.0907,16.78297 -0.0907,19.05093 0,1.84462 1.20957,4.02187 4.65689,3.32636 C 116.08973,126.1293 135.4733,100.12326 135.4733,69.460333 135.4733,31.086303 105.143,1.3243239e-5 67.736632,1.3243239e-5 Z"
     fill-rule="evenodd"
     clip-rule="evenodd"
     fill="#fffaf3"
     id="path1-5"
     style="stroke-width:0.264583" /></svg>
