<?xml version="1.0" encoding="UTF-8" standalone="no"?>
<svg
   width="1799.797"
   height="151.417"
   viewBox="0 0 476.196 40.062"
   version="1.1"
   id="svg4"
   sodipodi:docname="JasDevelops_logo.svg"
   inkscape:version="1.4 (e7c3feb1, 2024-10-09)"
   xmlns:inkscape="http://www.inkscape.org/namespaces/inkscape"
   xmlns:sodipodi="http://sodipodi.sourceforge.net/DTD/sodipodi-0.dtd"
   xmlns="http://www.w3.org/2000/svg"
   xmlns:svg="http://www.w3.org/2000/svg">
  <defs
     id="defs4" />
  <sodipodi:namedview
     id="namedview4"
     pagecolor="#ffffff"
     bordercolor="#000000"
     borderopacity="0.25"
     inkscape:showpageshadow="2"
     inkscape:pageopacity="0.0"
     inkscape:pagecheckerboard="0"
     inkscape:deskcolor="#d1d1d1"
     inkscape:zoom="0.17171123"
     inkscape:cx="902.67831"
     inkscape:cy="75.708504"
     inkscape:window-width="1424"
     inkscape:window-height="781"
     inkscape:window-x="8"
     inkscape:window-y="33"
     inkscape:window-maximized="0"
     inkscape:current-layer="svg4" />
  <g
     font-family="Silkscreen"
     id="g4">
    <path
       fill="#0f0"
       d="M-84.694 415.684v29.986h7.497v-29.986h-7.497zm0 29.986h-14.993v7.496h14.993v-7.496zm-14.993 0v-7.497h-7.497v7.497h7.497zm115.005-29.986v37.482h22.49v-7.496h7.496v-22.49h-7.496v-7.496h-22.49zm-72.098 5.181v6.46h-6.46v25.841h6.46v-12.92h12.92v12.92h6.46v-25.84h-6.46v-6.46h-12.92zm38.76 0v6.46H1.361v-6.46h-19.38zm0 6.46h-6.46v6.461h6.46v-6.46zm0 6.461v6.46h12.921v-6.46h-12.92zm12.921 6.46v6.46h6.46v-6.46h-6.46zm0 6.46h-19.38v6.46H-5.1v-6.46zm64.36-25.84v32.3h19.38v-6.46h-12.92v-6.46h12.92v-6.46h-12.92v-6.46h12.92v-6.46h-19.38zm32.3 0v12.92h6.46v-12.92h-6.46zm6.46 12.92v12.92h6.461v-12.92h-6.46zm6.461 12.92v6.46h6.46v-6.46h-6.46zm6.46 0h6.46v-12.92h-6.46v12.92zm6.46-12.92h6.46v-12.92h-6.46v12.92zm19.38-12.92v32.3h19.382v-6.46h-12.921v-6.46h12.92v-6.46h-12.92v-6.46h12.92v-6.46h-19.38zm32.302 0v32.3h19.38v-6.46h-12.92v-25.84h-6.46zm38.761 0v6.46h-6.46v19.38h6.46v6.46h12.92v-6.46h6.46v-19.38h-6.46v-6.46h-12.92zm32.301 0v32.3h6.46v-12.92h12.92v-6.46h6.46v-6.46h-6.46v-6.46h-19.38zm45.221 0v6.46h19.38v-6.46h-19.38zm0 6.46h-6.46v6.46h6.46v-6.46zm0 6.46v6.46h12.92v-6.46h-12.92zm12.92 6.46v6.46h6.46v-6.46h-6.46zm0 6.46h-19.38v6.46h19.38v-6.46zM22.815 423.18h14.693v22.49H22.814v-22.49zm223.792 4.145h12.662v6.461h-12.662v-6.46zm-303.386.259h12.92v6.202h-12.92v-6.202zm264.625 0h12.92v18.864h-12.92v-18.864z"
       class="JD_gr"
       font-size="185.667"
       style="line-height:1.25;-inkscape-font-specification:Silkscreen;white-space:pre"
       transform="translate(107.184 -415.684)"
       id="path1" />
    <path
       fill="#0f0"
       d="M359.538 438.173v-7.496h-7.496v-7.497h-7.497v-7.496h7.497v7.496h7.496v7.497h7.497v7.496zm-7.496 7.497v-7.497h7.496v7.497zm-7.497 7.496v-7.496h7.497v7.496z"
       class="Arr_gr"
       font-size="185.667"
       style="line-height:1.25;-inkscape-font-specification:Silkscreen;white-space:pre"
       transform="translate(107.184 -415.684)"
       id="path2" />
    <path
       fill="#ffffff"
       d="m 546.229,298.849 v -100 h 60 v 20 h -40 v 20 h 40 v 20 h -40 v 20 h 40 v 20 z m 140,0 v -20 h -20 v -40 h -20 v -40 h 20 v 40 h 20 v 40 h 20 v 20 z m 40,-60 v -40 h 20 v 40 z m -20,40 v -40 h 20 v 40 z m 80,20 v -100 h 60 v 20 h -40 v 20 h 40 v 20 h -40 v 20 h 40 v 20 z m 100,0 v -100 h 20 v 80 h 40 v 20 z m 120,0 v -20 h -20 v -60 h 20 v -20 h 40 v 20 h 20 v 60 h -20 v 20 z m 0,-20.8 h 40 v -58.4 h -40 z m 100,20.8 v -100 h 60 v 20 h 20 v 20 h -20 v 20 h -40 v 40 z m 20,-60 h 39.2 v -20 h -39.2 z m 120,-20 v -20 h 60 v 20 z m 40,60 v -20 h -40 v -20 h -20 v -20 h 20 v 20 h 40 v 20 h 20 v 20 z m -60,20 v -20 h 60 v 20 z m -816.042,0 V 182.807 h 69.625 v 23.208 h 23.209 v 69.625 h -23.209 v 23.209 z m 23.209,-23.209 h 45.488 v -69.625 h -45.488 z m -266.417,23.21 v -80 h 20 v -20 h 40 v 20 h 20 v 80 h -20 v -40 h -40 v 40 z m 20,-60 h 40 v -19.2 h -40 z m 120,-20 v -20 h 60 v 20 z m 40,60 v -20 h -40 v -20 h -20 v -20 h 20 v 20 h 40 v 20 h 20 v 20 z m -60,20 v -20 h 60 v 20 z M 100.562,275.64 V 182.807 H 123.77 V 275.64 Z M 54.145,298.85 V 275.64 H 30.937 v -23.208 h 23.208 v 23.208 h 46.417 v 23.209 z"
       class="JD_wh"
       font-size="160px"
       style="line-height:1.25;-inkscape-font-specification:Silkscreen;text-align:center;white-space:pre;display:inline;fill:#161a1d;fill-opacity:1"
       text-anchor="middle"
       transform="matrix(0.323,0,0,0.323,-8.015,-56.469)"
       id="path3" />
    <path
       fill="#ef4357"
       d="M1475.854 252.432v-23.208h-23.208v-23.209h-23.209v-23.208h23.209v23.208h23.208v23.209h23.208v23.208zm-23.208 23.208v-23.208h23.208v23.208zm-23.209 23.209V275.64h23.209v23.209z"
       class="Arr_pi"
       font-size="185.667"
       style="line-height:1.25;white-space:pre;-inkscape-font-specification:Silkscreen"
       transform="matrix(.323 0 0 .323 -8.015 -56.469)"
       id="path4" />
  </g>
</svg>
