<svg xmlns="http://www.w3.org/2000/svg" width="1799.797" height="151.417" viewBox="0 0 476.196 40.062">
  <g font-family="Silkscreen">
    <path fill="#0f0" d="M-84.694 415.684v29.986h7.497v-29.986h-7.497zm0 29.986h-14.993v7.496h14.993v-7.496zm-14.993 0v-7.497h-7.497v7.497h7.497zm115.005-29.986v37.482h22.49v-7.496h7.496v-22.49h-7.496v-7.496h-22.49zm-72.098 5.181v6.46h-6.46v25.841h6.46v-12.92h12.92v12.92h6.46v-25.84h-6.46v-6.46h-12.92zm38.76 0v6.46H1.361v-6.46h-19.38zm0 6.46h-6.46v6.461h6.46v-6.46zm0 6.461v6.46h12.921v-6.46h-12.92zm12.921 6.46v6.46h6.46v-6.46h-6.46zm0 6.46h-19.38v6.46H-5.1v-6.46zm64.36-25.84v32.3h19.38v-6.46h-12.92v-6.46h12.92v-6.46h-12.92v-6.46h12.92v-6.46h-19.38zm32.3 0v12.92h6.46v-12.92h-6.46zm6.46 12.92v12.92h6.461v-12.92h-6.46zm6.461 12.92v6.46h6.46v-6.46h-6.46zm6.46 0h6.46v-12.92h-6.46v12.92zm6.46-12.92h6.46v-12.92h-6.46v12.92zm19.38-12.92v32.3h19.382v-6.46h-12.921v-6.46h12.92v-6.46h-12.92v-6.46h12.92v-6.46h-19.38zm32.302 0v32.3h19.38v-6.46h-12.92v-25.84h-6.46zm38.761 0v6.46h-6.46v19.38h6.46v6.46h12.92v-6.46h6.46v-19.38h-6.46v-6.46h-12.92zm32.301 0v32.3h6.46v-12.92h12.92v-6.46h6.46v-6.46h-6.46v-6.46h-19.38zm45.221 0v6.46h19.38v-6.46h-19.38zm0 6.46h-6.46v6.46h6.46v-6.46zm0 6.46v6.46h12.92v-6.46h-12.92zm12.92 6.46v6.46h6.46v-6.46h-6.46zm0 6.46h-19.38v6.46h19.38v-6.46zM22.815 423.18h14.693v22.49H22.814v-22.49zm223.792 4.145h12.662v6.461h-12.662v-6.46zm-303.386.259h12.92v6.202h-12.92v-6.202zm264.625 0h12.92v18.864h-12.92v-18.864z" class="JD_gr" font-size="185.667" style="line-height:1.25;-inkscape-font-specification:Silkscreen;white-space:pre" transform="translate(107.184 -415.684)"/>
    <path  fill="#0f0" d="M359.538 438.173v-7.496h-7.496v-7.497h-7.497v-7.496h7.497v7.496h7.496v7.497h7.497v7.496zm-7.496 7.497v-7.497h7.496v7.497zm-7.497 7.496v-7.496h7.497v7.496z" class="Arr_gr" font-size="185.667" style="line-height:1.25;-inkscape-font-specification:Silkscreen;white-space:pre" transform="translate(107.184 -415.684)"/>
    <path fill="#fff" d="M546.229 298.849v-100h60v20h-40v20h40v20h-40v20h40v20zm140 0v-20h-20v-40h-20v-40h20v40h20v40h20v20zm40-60v-40h20v40zm-20 40v-40h20v40zm80 20v-100h60v20h-40v20h40v20h-40v20h40v20zm100 0v-100h20v80h40v20zm120 0v-20h-20v-60h20v-20h40v20h20v60h-20v20zm0-20.8h40v-58.4h-40zm100 20.8v-100h60v20h20v20h-20v20h-40v40zm20-60h39.2v-20h-39.2zm120-20v-20h60v20zm40 60v-20h-40v-20h-20v-20h20v20h40v20h20v20zm-60 20v-20h60v20zm-816.042 0V182.807h69.625v23.208h23.209v69.625h-23.209v23.209zm23.209-23.209h45.488v-69.625h-45.488zM166.979 298.85v-80h20v-20h40v20h20v80h-20v-40h-40v40zm20-60h40v-19.2h-40zm120-20v-20h60v20zm40 60v-20h-40v-20h-20v-20h20v20h40v20h20v20zm-60 20v-20h60v20zM100.562 275.64v-92.833h23.208v92.833zM54.145 298.85V275.64H30.937v-23.208h23.208v23.208h46.417v23.209z" class="JD_wh" font-size="160" style="line-height:1.25;white-space:pre;-inkscape-font-specification:Silkscreen;text-align:center" text-anchor="middle" transform="matrix(.323 0 0 .323 -8.015 -56.469)"/>
    <path fill="#ef4357" d="M1475.854 252.432v-23.208h-23.208v-23.209h-23.209v-23.208h23.209v23.208h23.208v23.209h23.208v23.208zm-23.208 23.208v-23.208h23.208v23.208zm-23.209 23.209V275.64h23.209v23.209z" class="Arr_pi" font-size="185.667" style="line-height:1.25;white-space:pre;-inkscape-font-specification:Silkscreen" transform="matrix(.323 0 0 .323 -8.015 -56.469)"/>
  </g>
</svg>