<?xml version="1.0" encoding="UTF-8"?>
<!-- Created with Inkscape (http://www.inkscape.org/) -->
<svg id="svg1" width="860" height="860" version="1.1" viewBox="0 0 227.54 227.54" xmlns="http://www.w3.org/2000/svg">
 <defs id="defs1">
  <filter id="filter132" x="0" y="0" width="1" height="1" color-interpolation-filters="sRGB">
   <feColorMatrix id="feColorMatrix132" values="1 0 0 0 0 0 1 0 0 0 0 0 1 0 0 0 0 0 1000 -500 "/>
  </filter>
  <filter id="filter30" x="0" y="0" width="1" height="1" color-interpolation-filters="sRGB">
   <feColorMatrix id="feColorMatrix30" result="fbSourceGraphic" values="1 0 0 0 0 0 1 0 0 0 0 0 1 0 0 0 0 0 1000 -500 "/>
   <feColorMatrix id="feColorMatrix42" in="fbSourceGraphic" result="fbSourceGraphicAlpha" values="0 0 0 -1 0 0 0 0 -1 0 0 0 0 -1 0 0 0 0 1 0"/>
   <feColorMatrix id="feColorMatrix43" in="fbSourceGraphic" result="fbSourceGraphic" values="1 0 0 0 0 0 1 0 0 0 0 0 1 0 0 0 0 0 1000 -500 "/>
   <feColorMatrix id="feColorMatrix62" in="fbSourceGraphic" result="fbSourceGraphicAlpha" values="0 0 0 -1 0 0 0 0 -1 0 0 0 0 -1 0 0 0 0 1 0"/>
   <feColorMatrix id="feColorMatrix63" in="fbSourceGraphic" values="1 0 0 0 0 0 1 0 0 0 0 0 1 0 0 0 0 0 1000 -500 "/>
  </filter>
 </defs>
 <path id="bg_circle" transform="translate(32.015 -180.71)" d="m195.53 294.48a113.77 113.77 0 0 1-113.77 113.77 113.77 113.77 0 0 1-113.77-113.77 113.77 113.77 0 0 1 113.77-113.77 113.77 113.77 0 0 1 113.77 113.77z" fill="#0ef" fill-rule="evenodd" filter="url(#filter132)" stroke-linejoin="bevel" stroke-miterlimit="2.3" stroke-width="21.94"/>
 <path id="face" transform="translate(-18.194 -24.374)" d="m131.96 82.854c-46.861-0.26632-54.225 32.152-56.397 72.933-3.1104-2.9115-7.9217-6.624-11.061-5.2364-4.9565 2.191 1.0195 25.491 8.1669 28.256 1.4064 0.54417 3.084 1.0174 4.8653 1.4304 7.9603 34.669 36.421 60.586 54.426 60.306 20.082-0.31159 47.504-26.267 54.742-61.269 1.6637-0.39555 3.2252-0.84654 4.5486-1.3586 7.1474-2.7655 13.123-26.065 8.1669-28.256-3.1554-1.3948-7.9982 2.3628-11.107 5.2808-2.4618-40.378-10.912-71.828-56.351-72.086z" fill="#fff" filter="url(#filter30)" stroke-miterlimit="2.3" stroke-width="0"/>
 <path id="nose" transform="translate(-18.521 -24.374)" d="m124.23 183.04a1.8653 1.8653 0 0 0-0.47388 0.11421 1.8653 1.8653 0 0 0-1.0723 2.4102c1.6976 4.418 5.7294 6.8296 9.7699 6.8905 4.0405 0.0609 8.1911-2.2014 10.213-6.5722a1.8653 1.8653 0 0 0-0.91002-2.4769 1.8653 1.8653 0 0 0-2.4748 0.91003c-1.4258 3.0825-4.1161 4.4485-6.7717 4.4085-2.6555-0.04-5.1756-1.4576-6.3438-4.4979a1.8653 1.8653 0 0 0-1.9363-1.1865zm-11.88 16.176a1.8653 1.8653 0 0 0-0.72399 0.0708 1.8653 1.8653 0 0 0-1.2444 2.3285c3.6066 11.878 12.854 18.197 22.397 18.25 9.5428 0.0526 19.266-6.0796 24.023-17.891a1.8653 1.8653 0 0 0-1.033-2.4278 1.8653 1.8653 0 0 0-2.4278 1.0335c-4.274 10.61-12.595 15.598-20.543 15.555-7.9475-0.0438-15.637-5.0368-18.846-15.604a1.8653 1.8653 0 0 0-1.602-1.3152z" color="#000000" filter="url(#filter31)" stroke-linecap="round" stroke-linejoin="round" stroke-miterlimit="2.3" style="-inkscape-stroke:none"/>
 <path id="cheeks" transform="translate(-18.521 -24.374)" d="m86.855 167.33a9.9219 9.9219 0 0 0-9.9219 9.9219 9.9219 9.9219 0 0 0 9.9219 9.9219 9.9219 9.9219 0 0 0 9.9219-9.9219 9.9219 9.9219 0 0 0-9.9219-9.9219zm91.228 0a9.9219 9.9219 0 0 0-9.9219 9.9219 9.9219 9.9219 0 0 0 9.9219 9.9219 9.9219 9.9219 0 0 0 9.9219-9.9219 9.9219 9.9219 0 0 0-9.9219-9.9219z" fill="#ef4357" filter="url(#filter33)" stroke-linecap="round" stroke-linejoin="round" stroke-miterlimit="2.3" stroke-width="4.7062"/>
 <path id="eye_le" transform="translate(-18.521 -24.374)" d="m94.047 149.62a1.8653 1.8653 0 0 0-1.3152 0.55346 1.8653 1.8653 0 0 0 0.013953 2.637l1.4263 1.4102-2.3368-0.82268a1.8653 1.8653 0 0 0-2.3787 1.141 1.8653 1.8653 0 0 0 1.1405 2.3787l5.4395 1.9141a1.8655 1.8655 0 0 0 2.295-0.94154s1.5721-3.6619 6.9453-3.7812c1.9967-0.0443 4.43 1.0902 6.2988 2.3554 1.8689 1.2652 3.1114 2.5275 3.1114 2.5275a1.8653 1.8653 0 0 0 2.6386 0.02325 1.8653 1.8653 0 0 0 0.02325-2.6386s-1.4892-1.5178-3.6814-3.0019c-2.1922-1.4841-5.1497-3.0679-8.4729-2.9941-3.1891 0.07079-5.5023 1.2051-7.1148 2.4567l-2.7109-2.6794a1.8653 1.8653 0 0 0-1.3219-0.53795z" color="#000000" filter="url(#filter35)" stroke-linecap="round" stroke-linejoin="round" stroke-miterlimit="2.3" style="-inkscape-stroke:none"/>
 <path id="eye_ri" transform="matrix(-1 0 0 1 244.49 -22.74)" d="m94.048 149.62a1.8653 1.8653 0 0 1 1.3214 0.53795l2.7115 2.6794c1.6125-1.2516 3.9257-2.3859 7.1148-2.4567 3.3232-0.07376 6.2806 1.51 8.4729 2.9941 2.1922 1.4841 3.6814 3.0019 3.6814 3.0019a1.8653 1.8653 0 0 1-0.02325 2.6386 1.8653 1.8653 0 0 1-2.6386-0.02326s-1.2426-1.2623-3.1114-2.5275-4.3022-2.3997-6.2988-2.3554c-5.3732 0.11927-6.9453 3.7812-6.9453 3.7812a1.8655 1.8655 0 0 1-2.295 0.94155l-5.4395-1.9141a1.8653 1.8653 0 0 1-1.1405-2.3787 1.8653 1.8653 0 0 1 2.3787-1.141l2.3363 0.82217-1.4263-1.4097a1.8653 1.8653 0 0 1-0.013436-2.637 1.8653 1.8653 0 0 1 1.3152-0.55345z" color="#000000" filter="url(#filter36)" stroke-linecap="round" stroke-linejoin="round" stroke-miterlimit="2.3" style="-inkscape-stroke:none"/>
 <path id="hair" transform="translate(-18.521 -24.374)" d="m132.29 35.754c-26.514-0.40935-35.745 14.805-35.745 31.648 0 1.4329 0.12471 2.8406 0.34882 4.2209-26.157 10.265-30.085 34.787-30.085 68.694 0 3.4027 0.18291 6.7498 0.50126 10.044 0.37456 0.07019 0.75819 0.18095 1.1467 0.31884-0.96454 7.5222-1.1471 16.095-0.033073 27.606 2.6727 27.618 15.41 54.239 15.41 54.239s-1.6742-18.405-2.9047-41.127c0.2524 0.40147 0.49368 0.8144 0.75189 1.2097-0.2806-0.72171-0.5435-1.4546-0.80719-2.1869-0.45389-8.5221-0.84515-17.572-1.0547-26.538-0.27343-11.697 9.6335-22.497 9.6335-22.497l12.148-0.72553s0.75754-13.078 4.2323-22.199c2.3918 14.922 3.7222 22.283 3.7222 22.283 11.413 0.39205 29.984 0.40204 29.984 0.40204s-0.35066-7.2778 3.1884-14.74c4.1889 10.299 4.4788 14.74 4.4788 14.74l14.884-0.45733s2.3784-13.644 0.91157-26.388c10.446 13.681 7.2983 26.559 7.2983 26.559l6.3495 0.65164s9.7264 16.259 8.4289 31.652c-0.57475 6.8186-1.0375 12.558-1.5074 18.358-0.00264 0.00735-0.0051 0.01487-0.00775 0.02222 0.00226-0.00358 0.00446-0.00728 0.00672-0.01085-2.1194 26.161-3.2324 42.053-3.2324 42.053s14.826-36.323 16.406-83.962c0.20602-0.05526 0.41513-0.12408 0.6165-0.15865 0.2638-3.0048 0.41083-6.0539 0.41083-9.1472 0-34.081-3.4206-58.575-30.073-68.774 0.21575-1.355 0.33693-2.7359 0.33693-4.1413 0-16.843-8.105-31.221-35.745-31.648z" filter="url(#filter37)" stroke-miterlimit="2.3" stroke-width="0"/>
</svg>
