<?xml version="1.0" encoding="UTF-8" standalone="no"?>
<!-- Created with Inkscape (http://www.inkscape.org/) -->

<svg
   width="512.00006"
   height="511.99997"
   viewBox="0 0 135.46668 135.46666"
   version="1.1"
   id="svg1"
   inkscape:export-filename="moon.svg"
   inkscape:export-xdpi="96"
   inkscape:export-ydpi="96"
   xml:space="preserve"
   xmlns:inkscape="http://www.inkscape.org/namespaces/inkscape"
   xmlns:sodipodi="http://sodipodi.sourceforge.net/DTD/sodipodi-0.dtd"
   xmlns="http://www.w3.org/2000/svg"
   xmlns:svg="http://www.w3.org/2000/svg"><sodipodi:namedview
     id="namedview1"
     pagecolor="#ffffff"
     bordercolor="#000000"
     borderopacity="0.25"
     inkscape:showpageshadow="2"
     inkscape:pageopacity="0.0"
     inkscape:pagecheckerboard="0"
     inkscape:deskcolor="#2a2a2a"
     inkscape:document-units="px"
     showguides="false"><sodipodi:guide
       position="-148.41391,-116.26086"
       orientation="-1,0"
       id="guide4"
       inkscape:locked="false"
       inkscape:label=""
       inkscape:color="rgb(0,134,229)" /><sodipodi:guide
       position="-129.73618,-125.56108"
       orientation="0,1"
       id="guide5"
       inkscape:locked="false"
       inkscape:label=""
       inkscape:color="rgb(0,134,229)" /><inkscape:page
       x="0"
       y="0"
       width="135.46667"
       height="135.46666"
       id="page2"
       margin="0"
       bleed="0" /></sodipodi:namedview><defs
     id="defs1" /><g
     style="clip-rule:evenodd;fill-rule:evenodd;stroke-width:1;stroke-linejoin:round;stroke-miterlimit:2"
     id="g56"
     transform="matrix(0.26458333,0,0,0.26458333,-1.51892e-7,-7.5963014e-6)"><path
       d="M 256,0 C 397.29,0 512,114.71 512,256 512,397.29 397.29,512 256,512 114.71,512 0,397.29 0,256 0,114.71 114.71,0 256,0 Z m 149.439,390.919 v -5.04 L 382.05,362.916 a 6.999,6.999 0 0 1 -2.661,-6.721 V 187.476 a 7,7 0 0 1 2.661,-6.722 L 406,157.792 v -5.041 H 323.088 L 263.983,300.189 196.756,152.751 h -86.975 v 5.041 l 28.012,33.744 a 11.616,11.616 0 0 1 3.781,9.802 v 132.595 a 15.266,15.266 0 0 1 -4.06,13.161 L 106,385.318 v 5.04 h 89.356 v -5.04 l -31.513,-38.224 a 15.821,15.821 0 0 1 -4.342,-13.161 V 219.26 l 78.433,171.098 h 9.103 L 314.404,219.26 v 136.376 c 0,3.639 0,4.34 -2.382,6.719 l -24.229,23.524 v 5.04 z"
       fill="#fffaf3"
       class="fill-000000"
       id="path1"
       style="stroke-width:1" /></g></svg>
