<?xml version="1.0" encoding="UTF-8" standalone="no"?>
<!-- Created with Inkscape (http://www.inkscape.org/) -->

<svg
   width="63.999996"
   height="63.999996"
   viewBox="0 0 16.933332 16.933332"
   version="1.1"
   id="svg1"
   xmlns:inkscape="http://www.inkscape.org/namespaces/inkscape"
   xmlns:sodipodi="http://sodipodi.sourceforge.net/DTD/sodipodi-0.dtd"
   xmlns="http://www.w3.org/2000/svg"
   xmlns:svg="http://www.w3.org/2000/svg">
  <sodipodi:namedview
     id="namedview1"
     pagecolor="#ffffff"
     bordercolor="#000000"
     borderopacity="0.25"
     inkscape:showpageshadow="2"
     inkscape:pageopacity="0.0"
     inkscape:pagecheckerboard="0"
     inkscape:deskcolor="#2a2a2a"
     inkscape:document-units="px"
     showguides="false">
    <sodipodi:guide
       position="-10.211056,17.766888"
       orientation="-1,0"
       id="guide4"
       inkscape:locked="false"
       inkscape:label=""
       inkscape:color="rgb(0,134,229)" />
    <sodipodi:guide
       position="8.4666665,8.4666655"
       orientation="0,1"
       id="guide5"
       inkscape:locked="false"
       inkscape:label=""
       inkscape:color="rgb(0,134,229)" />
    <inkscape:page
       x="0"
       y="0"
       width="16.933332"
       height="16.933332"
       id="page2"
       margin="0"
       bleed="0" />
  </sodipodi:namedview>
  <defs
     id="defs1" />
  <path
     id="moon"
     style="fill:#ffff00;stroke-width:0.999998;stroke-linecap:round;stroke-linejoin:round;paint-order:markers fill stroke"
     d="m 8.3462308,2.5611037 c -0.520578,0.073651 -1.028149,0.2255375 -1.508175,0.4515 a 0.45890673,0.43043027 82.040083 0 0 -0.0014,1.967e-4 c -2.804054,1.3226175 -4.033138,4.8438843 -2.740036,7.8498096 1.293103,3.005929 4.626184,4.375577 7.4302392,3.052961 a 0.45890673,0.43043027 82.040083 0 0 0.0014,-1.97e-4 c 0.639601,-0.302296 1.217497,-0.73089 1.703736,-1.264011 A 0.45890673,0.43043027 82.040083 0 0 12.893173,11.871238 C 10.945142,11.963819 9.1253868,10.778195 8.3024308,8.8811243 7.4893198,6.978031 7.8467168,4.7628015 9.2044028,3.2957449 A 0.45890673,0.43043027 82.040083 0 0 8.8704088,2.513861 c -0.175878,0.00701 -0.350653,0.022693 -0.524178,0.047243 z" />
</svg>
