<?xml version="1.0" encoding="UTF-8" standalone="no"?>
<!-- Created with Inkscape (http://www.inkscape.org/) -->

<svg
   width="55.796761"
   height="55"
   viewBox="0 0 14.762893 14.552083"
   version="1.1"
   id="svg1"
   inkscape:export-filename="moon.svg"
   inkscape:export-xdpi="96"
   inkscape:export-ydpi="96"
   xmlns:inkscape="http://www.inkscape.org/namespaces/inkscape"
   xmlns:sodipodi="http://sodipodi.sourceforge.net/DTD/sodipodi-0.dtd"
   xmlns="http://www.w3.org/2000/svg"
   xmlns:svg="http://www.w3.org/2000/svg">
  <sodipodi:namedview
     id="namedview1"
     pagecolor="#ffffff"
     bordercolor="#000000"
     borderopacity="0.25"
     inkscape:showpageshadow="2"
     inkscape:pageopacity="0.0"
     inkscape:pagecheckerboard="0"
     inkscape:deskcolor="#2a2a2a"
     inkscape:document-units="px"
     showguides="false">
    <sodipodi:guide
       position="-11.296276,16.576264"
       orientation="-1,0"
       id="guide4"
       inkscape:locked="false"
       inkscape:label=""
       inkscape:color="rgb(0,134,229)" />
    <sodipodi:guide
       position="7.3814469,7.2760412"
       orientation="0,1"
       id="guide5"
       inkscape:locked="false"
       inkscape:label=""
       inkscape:color="rgb(0,134,229)" />
    <inkscape:page
       x="0"
       y="0"
       width="14.762893"
       height="14.552083"
       id="page2"
       margin="0"
       bleed="0" />
  </sodipodi:namedview>
  <defs
     id="defs1" />
  <path
     id="sun"
     style="display:inline;fill:#ffff00;stroke-width:1;stroke-linecap:round;stroke-linejoin:round;paint-order:markers fill stroke"
     inkscape:transform-center-y="-6.3042"
     d="M 7.3814474,0 A 0.36309641,0.2803983 2.7763845e-6 0 0 7.0188234,0.27988681 V 1.5483603 a 0.36309641,0.2803983 2.7763845e-6 0 0 0.362624,0.2798869 0.36309641,0.2803983 2.7763845e-6 0 0 0.362623,-0.2798869 V 0.27988681 A 0.36309641,0.2803983 2.7763845e-6 0 0 7.3814474,0 Z m -4.564236,1.6500085 a 0.28039829,0.36309641 50.000005 0 0 -0.249156,0.101648 0.28039829,0.36309641 50.000005 0 0 -0.09739,0.4477244 l 0.815076,0.9715666 a 0.28039829,0.36309641 50.000005 0 0 0.457652,-0.018439 0.28039829,0.36309641 50.000005 0 0 0.09787,-0.4477243 L 3.0261814,1.733218 a 0.28039829,0.36309641 50.000005 0 0 -0.20897,-0.083209 z m 9.1284696,-1e-7 a 0.3630964,0.28039829 39.999999 0 0 -0.208969,0.08321 L 10.921636,2.704785 a 0.3630964,0.28039829 39.999999 0 0 0.09787,0.4477244 0.3630964,0.28039829 39.999999 0 0 0.457653,0.018439 L 12.292231,2.1993809 A 0.3630964,0.28039829 39.999999 0 0 12.194837,1.7516565 0.3630964,0.28039829 39.999999 0 0 11.945681,1.6500084 Z M 7.3814474,2.6466324 A 4.8412854,4.8412854 0 0 0 2.5401614,7.4879178 4.8412854,4.8412854 0 0 0 7.3814474,12.329204 4.8412854,4.8412854 0 0 0 12.222731,7.487918 4.8412854,4.8412854 0 0 0 7.3814474,2.6466324 Z M 0.29113839,5.8766776 a 0.28039829,0.36309641 10.000002 0 0 -0.284142,0.3110903 0.28039829,0.36309641 10.000002 0 0 0.213225,0.4056469 L 1.4688374,6.813731 A 0.28039829,0.36309641 10.000002 0 0 1.8078224,6.5050044 0.28039829,0.36309641 10.000002 0 0 1.5950714,6.0993576 L 0.34598139,5.8790414 a 0.28039829,0.36309641 10.000002 0 0 -0.05484,-0.00236 z m 14.18061661,1e-7 a 0.36309641,0.2803983 80 0 0 -0.05485,0.00236 l -1.249088,0.2203167 a 0.36309641,0.2803983 80 0 0 -0.212753,0.4056464 0.36309641,0.2803983 80 0 0 0.338985,0.3087267 L 14.54267,6.5934145 A 0.36309641,0.2803983 80 0 0 14.755897,6.1877681 0.36309641,0.2803983 80 0 0 14.471755,5.8766777 Z M 2.1628814,10.114221 a 0.36309642,0.2803983 60.000001 0 0 -0.106848,0.02931 l -1.09827301,0.634 a 0.36309642,0.2803983 60.000001 0 0 -0.06099,0.454344 0.36309642,0.2803983 60.000001 0 0 0.42361101,0.173983 l 1.098273,-0.634 a 0.36309642,0.2803983 60.000001 0 0 0.06146,-0.454343 0.36309642,0.2803983 60.000001 0 0 -0.317237,-0.203296 z m 10.4371296,0 a 0.2803983,0.3630964 30.000001 0 0 -0.317236,0.203295 0.2803983,0.3630964 30.000001 0 0 0.06146,0.454344 l 1.098272,0.634 a 0.2803983,0.3630964 30.000001 0 0 0.423614,-0.173983 0.2803983,0.3630964 30.000001 0 0 -0.06099,-0.454344 l -1.098273,-0.634 a 0.2803983,0.3630964 30.000001 0 0 -0.106849,-0.02931 z m -7.2921846,2.664598 a 0.36309641,0.28039829 20.000002 0 0 -0.298799,0.166419 l -0.43354,1.191883 a 0.36309641,0.28039829 20.000002 0 0 0.244901,0.387208 0.36309641,0.28039829 20.000002 0 0 0.436849,-0.138997 l 0.433542,-1.191883 a 0.36309641,0.28039829 20.000002 0 0 -0.244901,-0.387209 0.36309641,0.28039829 20.000002 0 0 -0.138052,-0.02742 z m 4.1472409,0 a 0.28039829,0.36309641 69.999999 0 0 -0.138052,0.02742 0.28039829,0.36309641 69.999999 0 0 -0.244901,0.387209 l 0.433541,1.191883 a 0.28039829,0.36309641 69.999999 0 0 0.436851,0.138998 0.28039829,0.36309641 69.999999 0 0 0.2448997,-0.387209 L 9.7538653,12.945236 a 0.28039829,0.36309641 69.999999 0 0 -0.298798,-0.166419 z" />
</svg>
